<?xml version="1.0" encoding="UTF-8"?>
<svg version="1.1" xmlns="http://www.w3.org/2000/svg" width="128" height="128">
<path d="M0 0 C42.24 0 84.48 0 128 0 C128 42.24 128 84.48 128 128 C85.76 128 43.52 128 0 128 C0 85.76 0 43.52 0 0 Z " fill="#212121" transform="translate(0,0)"/>
<path d="M0 0 C7.12232898 -0.43606096 11.85307839 0.3245667 17.9375 4.25 C19.67051346 7.10437511 19.23212373 9.75026781 19 13 C18.67 13.99 18.34 14.98 18 16 C17.61013788 19.38623103 17.49873318 22.62214519 18 26 C21.18218961 29.08859579 24.67763378 29.49739928 29 30 C29 31.65 29 33.3 29 35 C28.37351562 35.04898438 27.74703125 35.09796875 27.1015625 35.1484375 C26.28429687 35.22320312 25.46703125 35.29796875 24.625 35.375 C23.81289062 35.44460937 23.00078125 35.51421875 22.1640625 35.5859375 C19.79665809 35.82892588 19.79665809 35.82892588 18 38 C17.89790277 40.05863864 17.89790277 40.05863864 18.19921875 42.39453125 C18.27333984 43.26787109 18.34746094 44.14121094 18.42382812 45.04101562 C18.59861379 46.87820716 18.78597788 48.71424846 18.98632812 50.54882812 C19.52511449 57.27624325 19.52511449 57.27624325 16.76953125 61.07421875 C12.60243238 63.97179244 9.74792991 64.12826224 4.75 64.0625 C3.41195312 64.04896484 3.41195312 64.04896484 2.046875 64.03515625 C1.37140625 64.02355469 0.6959375 64.01195313 0 64 C0 62.02 0 60.04 0 58 C5.445 57.505 5.445 57.505 11 57 C10.95359375 55.68644531 10.9071875 54.37289062 10.859375 53.01953125 C10.82184734 51.28387696 10.78544825 49.54819801 10.75 47.8125 C10.71648437 46.94818359 10.68296875 46.08386719 10.6484375 45.19335938 C10.58162431 40.83379843 10.58777886 38.63670591 13.015625 34.88671875 C13.67046875 34.26410156 14.3253125 33.64148438 15 33 C13.79618552 30.50638429 12.54571278 28.31856917 11 26 C10.78881836 24.02294922 10.78881836 24.02294922 10.83984375 21.8046875 C10.85080078 21.00675781 10.86175781 20.20882812 10.87304688 19.38671875 C10.89431641 18.55785156 10.91558594 17.72898437 10.9375 16.875 C10.99912125 13.91261563 11.02062364 10.96391202 11 8 C9.33657163 6.33657163 7.2174291 6.63951903 4.9375 6.4375 C4.01839844 6.35371094 3.09929687 6.26992188 2.15234375 6.18359375 C1.08693359 6.09271484 1.08693359 6.09271484 0 6 C0 4.02 0 2.04 0 0 Z " fill="#EBECEB" transform="translate(75,32)"/>
<path d="M0 0 C0 1.65 0 3.3 0 5 C-0.93972656 5.09087891 -0.93972656 5.09087891 -1.8984375 5.18359375 C-2.71570313 5.26738281 -3.53296875 5.35117187 -4.375 5.4375 C-5.18710937 5.51871094 -5.99921875 5.59992187 -6.8359375 5.68359375 C-9.04272805 5.89090114 -9.04272805 5.89090114 -11 7 C-10.94199219 8.29035156 -10.88398437 9.58070312 -10.82421875 10.91015625 C-10.77729494 12.62756779 -10.7317976 14.34501872 -10.6875 16.0625 C-10.64560547 16.91005859 -10.60371094 17.75761719 -10.56054688 18.63085938 C-10.43620564 25.07173514 -11.79381785 28.11817914 -16 33 C-15.38125 33.2475 -14.7625 33.495 -14.125 33.75 C-11.47465099 35.30902883 -10.85625113 36.04204154 -10 39 C-10.1958826 40.9261789 -10.40116377 42.85320387 -10.703125 44.765625 C-11.19698398 48.48256363 -11.27826959 52.25972937 -11 56 C-9.33657163 57.66342837 -7.2174291 57.36048097 -4.9375 57.5625 C-4.01839844 57.64628906 -3.09929688 57.73007813 -2.15234375 57.81640625 C-1.08693359 57.90728516 -1.08693359 57.90728516 0 58 C0 59.65 0 61.3 0 63 C-12.31335662 63.89975813 -12.31335662 63.89975813 -16.04296875 61.91015625 C-18.51518587 59.17694261 -19.01410898 56.85891017 -19.375 53.25 C-19 50 -19 50 -18 48 C-17.85320066 46.17065435 -17.77897365 44.33499757 -17.75 42.5 C-17.72421875 41.5203125 -17.6984375 40.540625 -17.671875 39.53125 C-17.78015625 38.6959375 -17.8884375 37.860625 -18 37 C-21.44450737 34.70366176 -23.93812283 34.45983515 -28 34 C-28 32.35 -28 30.7 -28 29 C-27.04287109 28.80083984 -27.04287109 28.80083984 -26.06640625 28.59765625 C-25.24011719 28.42105469 -24.41382813 28.24445312 -23.5625 28.0625 C-22.32693359 27.80146484 -22.32693359 27.80146484 -21.06640625 27.53515625 C-19.02338796 27.19247006 -19.02338796 27.19247006 -18 26 C-17.6634969 21.01183645 -17.93288114 16.12154641 -18.6875 11.1875 C-19.03996737 8.20993987 -18.99687721 6.99082681 -18 4.0625 C-13.23305732 -0.85340964 -6.37942291 -0.26038461 0 0 Z " fill="#F1F2F1" transform="translate(53,32)"/>
</svg>
